%TF.GenerationSoftware,KiCad,Pcbnew,10.0.1*%
%TF.CreationDate,2026-05-09T19:40:12-04:00*%
%TF.ProjectId,Pathfinder,50617468-6669-46e6-9465-722e6b696361,rev?*%
%TF.SameCoordinates,Original*%
%TF.FileFunction,Copper,L2,Bot*%
%TF.FilePolarity,Positive*%
%FSLAX46Y46*%
G04 Gerber Fmt 4.6, Leading zero omitted, Abs format (unit mm)*
G04 Created by KiCad (PCBNEW 10.0.1) date 2026-05-09 19:40:12*
%MOMM*%
%LPD*%
G01*
G04 APERTURE LIST*
G04 Aperture macros list*
%AMRoundRect*
0 Rectangle with rounded corners*
0 $1 Rounding radius*
0 $2 $3 $4 $5 $6 $7 $8 $9 X,Y pos of 4 corners*
0 Add a 4 corners polygon primitive as box body*
4,1,4,$2,$3,$4,$5,$6,$7,$8,$9,$2,$3,0*
0 Add four circle primitives for the rounded corners*
1,1,$1+$1,$2,$3*
1,1,$1+$1,$4,$5*
1,1,$1+$1,$6,$7*
1,1,$1+$1,$8,$9*
0 Add four rect primitives between the rounded corners*
20,1,$1+$1,$2,$3,$4,$5,0*
20,1,$1+$1,$4,$5,$6,$7,0*
20,1,$1+$1,$6,$7,$8,$9,0*
20,1,$1+$1,$8,$9,$2,$3,0*%
G04 Aperture macros list end*
%TA.AperFunction,ComponentPad*%
%ADD10C,2.200000*%
%TD*%
%TA.AperFunction,ComponentPad*%
%ADD11C,1.400000*%
%TD*%
%TA.AperFunction,ComponentPad*%
%ADD12C,1.815000*%
%TD*%
%TA.AperFunction,ComponentPad*%
%ADD13R,1.815000X1.815000*%
%TD*%
%TA.AperFunction,ComponentPad*%
%ADD14RoundRect,0.250000X0.470000X-0.470000X0.470000X0.470000X-0.470000X0.470000X-0.470000X-0.470000X0*%
%TD*%
%TA.AperFunction,ComponentPad*%
%ADD15C,1.440000*%
%TD*%
%TA.AperFunction,ComponentPad*%
%ADD16C,1.524000*%
%TD*%
%TA.AperFunction,Conductor*%
%ADD17C,0.200000*%
%TD*%
G04 APERTURE END LIST*
D10*
%TO.P,SW1,1,1_1*%
%TO.N,B1*%
X109065000Y-121395000D03*
%TO.P,SW1,2,2_2*%
%TO.N,GND*%
X102715000Y-123935000D03*
%TD*%
D11*
%TO.P,R1,1*%
%TO.N,Net-(D1-PadA)*%
X112765000Y-106895000D03*
%TO.P,R1,2*%
%TO.N,L1*%
X112765000Y-111975000D03*
%TD*%
D12*
%TO.P,D3,A*%
%TO.N,Net-(D3-PadA)*%
X145895000Y-109435000D03*
D13*
%TO.P,D3,C*%
%TO.N,GND*%
X143355000Y-109435000D03*
%TD*%
D14*
%TO.P,RV1,1,1_1*%
%TO.N,+3V3*%
X163000000Y-109000000D03*
D15*
%TO.P,RV1,2,2_2*%
%TO.N,Pot*%
X165540000Y-109000000D03*
%TO.P,RV1,3,3_3*%
%TO.N,GND*%
X168080000Y-109000000D03*
%TD*%
D11*
%TO.P,R2,1*%
%TO.N,Net-(D2-PadA)*%
X131815000Y-106935000D03*
%TO.P,R2,2*%
%TO.N,L2*%
X131815000Y-112015000D03*
%TD*%
D10*
%TO.P,SW3,1,1_1*%
%TO.N,B3*%
X147165000Y-121395000D03*
%TO.P,SW3,2,2_2*%
%TO.N,GND*%
X140815000Y-123935000D03*
%TD*%
D12*
%TO.P,D2,A*%
%TO.N,Net-(D2-PadA)*%
X126845000Y-109435000D03*
D13*
%TO.P,D2,C*%
%TO.N,GND*%
X124305000Y-109435000D03*
%TD*%
D11*
%TO.P,R3,1*%
%TO.N,Net-(D3-PadA)*%
X150865000Y-106935000D03*
%TO.P,R3,2*%
%TO.N,L3*%
X150865000Y-112015000D03*
%TD*%
D12*
%TO.P,D1,A*%
%TO.N,Net-(D1-PadA)*%
X107795000Y-109435000D03*
D13*
%TO.P,D1,C*%
%TO.N,GND*%
X105255000Y-109435000D03*
%TD*%
D16*
%TO.P,U1,1,P26_A0_D0_1*%
%TO.N,Pot*%
X173016500Y-119515000D03*
%TO.P,U1,2,P27_A1_D1_2*%
%TO.N,L1*%
X170476500Y-119515000D03*
%TO.P,U1,3,P28_A2_D2_3*%
%TO.N,L2*%
X167936500Y-119515000D03*
%TO.P,U1,4,P29_A3_D3_4*%
%TO.N,L3*%
X165396500Y-119515000D03*
%TO.P,U1,5,P6_SDA_D4_5*%
%TO.N,B1*%
X162856500Y-119515000D03*
%TO.P,U1,6,P7_SCL_D5_6*%
%TO.N,B2*%
X160316500Y-119515000D03*
%TO.P,U1,7,P0_D6_TX_7*%
%TO.N,B3*%
X157776500Y-119515000D03*
%TO.P,U1,8,P1_D7_RX_8*%
%TO.N,unconnected-(U1-P1_D7_RX-Pad8)*%
X157776500Y-134755000D03*
%TO.P,U1,9,P2_D8_SCK_9*%
%TO.N,unconnected-(U1-P2_D8_SCK-Pad9)*%
X160316500Y-134755000D03*
%TO.P,U1,10,P4_D9_MISO_10*%
%TO.N,unconnected-(U1-P4_D9_MISO-Pad10)*%
X162856500Y-134755000D03*
%TO.P,U1,11,P3_D10_MOSI_11*%
%TO.N,unconnected-(U1-P3_D10_MOSI-Pad11)*%
X165396500Y-134755000D03*
%TO.P,U1,12,3V3_12*%
%TO.N,+3V3*%
X167936500Y-134755000D03*
%TO.P,U1,13,GND_13*%
%TO.N,GND*%
X170476500Y-134755000D03*
%TO.P,U1,14,VBUS_14*%
%TO.N,unconnected-(U1-VBUS-Pad14)*%
X173016500Y-134755000D03*
%TD*%
D10*
%TO.P,SW2,1,1_1*%
%TO.N,B2*%
X128115000Y-121395000D03*
%TO.P,SW2,2,2_2*%
%TO.N,GND*%
X121765000Y-123935000D03*
%TD*%
%TO.N,B1*%
D17*
X162856500Y-117685750D02*
X162856500Y-119515000D01*
X161895750Y-116725000D02*
X162856500Y-117685750D01*
X109065000Y-121395000D02*
X113735000Y-116725000D01*
X113735000Y-116725000D02*
X161895750Y-116725000D01*
%TO.N,GND*%
X102715000Y-123935000D02*
X121765000Y-123935000D01*
X105255000Y-121395000D02*
X102715000Y-123935000D01*
X105255000Y-109435000D02*
X105255000Y-121395000D01*
X139290000Y-113500000D02*
X143355000Y-109435000D01*
X140815000Y-123935000D02*
X163044081Y-123935000D01*
X170476500Y-134755000D02*
X170476500Y-131367419D01*
X121765000Y-123935000D02*
X140815000Y-123935000D01*
X170476500Y-131367419D02*
X163044081Y-123935000D01*
X128370000Y-113500000D02*
X139290000Y-113500000D01*
X124305000Y-109435000D02*
X128370000Y-113500000D01*
%TO.N,L1*%
X170476500Y-117976500D02*
X170476500Y-119515000D01*
X167500000Y-115000000D02*
X170476500Y-117976500D01*
X112765000Y-111975000D02*
X115790000Y-115000000D01*
X115790000Y-115000000D02*
X167500000Y-115000000D01*
%TO.N,+3V3*%
X163000000Y-109000000D02*
X163375000Y-109000000D01*
%TO.N,Pot*%
X165540000Y-109000000D02*
X173016500Y-116476500D01*
X173016500Y-116476500D02*
X173016500Y-119515000D01*
%TO.N,B3*%
X147165000Y-121395000D02*
X155896500Y-121395000D01*
X155896500Y-121395000D02*
X157776500Y-119515000D01*
%TD*%
M02*
