M48
; DRILL file KiCad 10.0.1 date 2026-05-09T19:40:58
; FORMAT={-:-/ absolute / metric / decimal}
; #@! TF.CreationDate,2026-05-09T19:40:58-04:00
; #@! TF.GenerationSoftware,Kicad,Pcbnew,10.0.1
; #@! TF.FileFunction,Plated,1,2,PTH
FMAT,2
METRIC
; #@! TA.AperFunction,Plated,PTH,ComponentDrill
T1C0.700
; #@! TA.AperFunction,Plated,PTH,ComponentDrill
T2C0.800
; #@! TA.AperFunction,Plated,PTH,ComponentDrill
T3C0.889
; #@! TA.AperFunction,Plated,PTH,ComponentDrill
T4C1.210
; #@! TA.AperFunction,Plated,PTH,ComponentDrill
T5C1.500
%
G90
G05
T1
X112.765Y-106.895
X112.765Y-111.975
X131.815Y-106.935
X131.815Y-112.015
X150.865Y-106.935
X150.865Y-112.015
T2
X163.0Y-109.0
X165.54Y-109.0
X168.08Y-109.0
T3
X157.776Y-119.515
X157.776Y-134.755
X160.316Y-119.515
X160.316Y-134.755
X162.856Y-119.515
X162.856Y-134.755
X165.397Y-119.515
X165.397Y-134.755
X167.936Y-119.515
X167.936Y-134.755
X170.476Y-119.515
X170.476Y-134.755
X173.016Y-119.515
X173.016Y-134.755
T4
X105.255Y-109.435
X107.795Y-109.435
X124.305Y-109.435
X126.845Y-109.435
X143.355Y-109.435
X145.895Y-109.435
T5
X102.715Y-123.935
X109.065Y-121.395
X121.765Y-123.935
X128.115Y-121.395
X140.815Y-123.935
X147.165Y-121.395
M30
