%TF.GenerationSoftware,KiCad,Pcbnew,10.0.1*%
%TF.CreationDate,2026-05-09T19:40:12-04:00*%
%TF.ProjectId,Pathfinder,50617468-6669-46e6-9465-722e6b696361,rev?*%
%TF.SameCoordinates,Original*%
%TF.FileFunction,Soldermask,Top*%
%TF.FilePolarity,Negative*%
%FSLAX46Y46*%
G04 Gerber Fmt 4.6, Leading zero omitted, Abs format (unit mm)*
G04 Created by KiCad (PCBNEW 10.0.1) date 2026-05-09 19:40:12*
%MOMM*%
%LPD*%
G01*
G04 APERTURE LIST*
G04 Aperture macros list*
%AMRoundRect*
0 Rectangle with rounded corners*
0 $1 Rounding radius*
0 $2 $3 $4 $5 $6 $7 $8 $9 X,Y pos of 4 corners*
0 Add a 4 corners polygon primitive as box body*
4,1,4,$2,$3,$4,$5,$6,$7,$8,$9,$2,$3,0*
0 Add four circle primitives for the rounded corners*
1,1,$1+$1,$2,$3*
1,1,$1+$1,$4,$5*
1,1,$1+$1,$6,$7*
1,1,$1+$1,$8,$9*
0 Add four rect primitives between the rounded corners*
20,1,$1+$1,$2,$3,$4,$5,0*
20,1,$1+$1,$4,$5,$6,$7,0*
20,1,$1+$1,$6,$7,$8,$9,0*
20,1,$1+$1,$8,$9,$2,$3,0*%
G04 Aperture macros list end*
%ADD10C,1.700000*%
%ADD11C,4.000000*%
%ADD12C,2.200000*%
%ADD13C,1.400000*%
%ADD14C,2.019000*%
%ADD15RoundRect,0.102000X-0.907500X-0.907500X0.907500X-0.907500X0.907500X0.907500X-0.907500X0.907500X0*%
%ADD16RoundRect,0.250000X0.470000X-0.470000X0.470000X0.470000X-0.470000X0.470000X-0.470000X-0.470000X0*%
%ADD17C,1.440000*%
%ADD18RoundRect,0.152400X0.609600X-1.063600X0.609600X1.063600X-0.609600X1.063600X-0.609600X-1.063600X0*%
%ADD19C,1.524000*%
%ADD20RoundRect,0.152400X-0.609600X1.063600X-0.609600X-1.063600X0.609600X-1.063600X0.609600X1.063600X0*%
G04 APERTURE END LIST*
D10*
%TO.C,SW1*%
X101445000Y-126475000D03*
D11*
X106525000Y-126475000D03*
D10*
X111605000Y-126475000D03*
D12*
X109065000Y-121395000D03*
X102715000Y-123935000D03*
%TD*%
D13*
%TO.C,R1*%
X112765000Y-106895000D03*
X112765000Y-111975000D03*
%TD*%
D14*
%TO.C,D3*%
X145895000Y-109435000D03*
D15*
X143355000Y-109435000D03*
%TD*%
D16*
%TO.C,RV1*%
X163000000Y-109000000D03*
D17*
X165540000Y-109000000D03*
X168080000Y-109000000D03*
%TD*%
D13*
%TO.C,R2*%
X131815000Y-106935000D03*
X131815000Y-112015000D03*
%TD*%
D10*
%TO.C,SW3*%
X139545000Y-126475000D03*
D11*
X144625000Y-126475000D03*
D10*
X149705000Y-126475000D03*
D12*
X147165000Y-121395000D03*
X140815000Y-123935000D03*
%TD*%
D14*
%TO.C,D2*%
X126845000Y-109435000D03*
D15*
X124305000Y-109435000D03*
%TD*%
D13*
%TO.C,R3*%
X150865000Y-106935000D03*
X150865000Y-112015000D03*
%TD*%
D14*
%TO.C,D1*%
X107795000Y-109435000D03*
D15*
X105255000Y-109435000D03*
%TD*%
D18*
%TO.C,U1*%
X173016500Y-118680000D03*
D19*
X173016500Y-119515000D03*
D18*
X170476500Y-118680000D03*
D19*
X170476500Y-119515000D03*
D18*
X167936500Y-118680000D03*
D19*
X167936500Y-119515000D03*
D18*
X165396500Y-118680000D03*
D19*
X165396500Y-119515000D03*
D18*
X162856500Y-118680000D03*
D19*
X162856500Y-119515000D03*
D18*
X160316500Y-118680000D03*
D19*
X160316500Y-119515000D03*
D18*
X157776500Y-118680000D03*
D19*
X157776500Y-119515000D03*
X157776500Y-134755000D03*
D20*
X157776500Y-135590000D03*
D19*
X160316500Y-134755000D03*
D20*
X160316500Y-135590000D03*
D19*
X162856500Y-134755000D03*
D20*
X162856500Y-135590000D03*
D19*
X165396500Y-134755000D03*
D20*
X165396500Y-135590000D03*
D19*
X167936500Y-134755000D03*
D20*
X167936500Y-135590000D03*
D19*
X170476500Y-134755000D03*
D20*
X170476500Y-135590000D03*
D19*
X173016500Y-134755000D03*
D20*
X173016500Y-135590000D03*
%TD*%
D10*
%TO.C,SW2*%
X120495000Y-126475000D03*
D11*
X125575000Y-126475000D03*
D10*
X130655000Y-126475000D03*
D12*
X128115000Y-121395000D03*
X121765000Y-123935000D03*
%TD*%
M02*
